# xmcd CD database file
#
# Track frame offsets:
#	150
#	18322
#	41492
#	59212
#	80665
#	116922
#	136850
#	159612
#	190002
#
# Disc length: 2962 seconds
#
# Revision: 1
# Processed by: cddbd v1.4PL0 Copyright (c) Steve Scherf et al.
# Submitted via: CDex 1.50
#
DISCID=7a0b9009
DTITLE=Trisha Pope - Monkey
DYEAR=1992
DGENRE=Jazz
TTITLE0=If I had Rythm In My Nursery Rhymes
TTITLE1=My Romance
TTITLE2=Dragons and Witches
TTITLE3=How You Were Missed
TTITLE4=Monkey
TTITLE5=On Sunday
TTITLE6=You'd Be So Nice To Come Home To
TTITLE7=Angel Eyes
TTITLE8=Black Coffee
EXTD=YEAR: 1992
EXTT0=
EXTT1=
EXTT2=
EXTT3=
EXTT4=
EXTT5=
EXTT6=
EXTT7=
EXTT8=
PLAYORDER=
